<svg xmlns="http://www.w3.org/2000/svg" width="1em" height="1em" viewBox="0 0 512 512" fill="currentColor">
<g><path d="M501.333,277.333c5.896,0,10.667-4.771,10.667-10.667v-21.333c0-5.896-4.771-10.667-10.667-10.667h-54.592
c-9.875-88.837-80.561-159.533-169.408-169.409V10.667C277.333,4.771,272.563,0,266.667,0h-21.333
c-5.896,0-10.667,4.771-10.667,10.667v54.591c-36.949,4.107-70.348,19.203-97.94,41.301L33.293,3.125
c-4.167-4.165-10.919-4.165-15.086,0L3.126,18.207c-4.167,4.165-4.167,10.919,0,15.085l103.435,103.435
c-22.098,27.592-37.195,60.993-41.302,97.94H10.667C4.771,234.667,0,239.438,0,245.333v21.333c0,5.896,4.771,10.667,10.667,10.667
h54.592c9.875,88.837,80.561,159.533,169.408,169.409v54.591c0,5.896,4.771,10.667,10.667,10.667h21.333
c5.896,0,10.667-4.771,10.667-10.667v-54.591c36.951-4.107,70.349-19.203,97.94-41.302l103.434,103.434
c4.167,4.165,10.919,4.165,15.086,0l15.081-15.082c4.167-4.165,4.167-10.919,0-15.085L405.44,375.273
c22.099-27.594,37.194-60.993,41.301-97.94H501.333z M256,405.333c-82.333,0-149.333-66.99-149.333-149.333
c0-33.49,11.223-64.319,29.927-89.241l46.268,46.268c-7.57,12.637-12.195,27.189-12.195,42.973
c0,47.052,38.271,85.333,85.333,85.333c15.785,0,30.336-4.625,42.973-12.194l46.266,46.266
C320.315,394.109,289.487,405.333,256,405.333z M375.408,345.24l-46.268-46.268c7.57-12.638,12.194-27.189,12.194-42.971
c0-47.052-38.271-85.333-85.333-85.333c-15.785,0-30.336,4.625-42.973,12.194l-46.266-46.267
c24.922-18.704,55.751-29.927,89.238-29.927c82.333,0,149.333,66.99,149.333,149.333
C405.333,289.49,394.111,320.318,375.408,345.24z"/></g></svg>
